<svg width="21" height="22" viewBox="0 0 21 22" fill="none" xmlns="http://www.w3.org/2000/svg">
<g id="Likee">
<path id="a" fill-rule="evenodd" clip-rule="evenodd" d="M12.4002 1.0439C13.623 1.45897 14.4594 2.79858 14.1877 4.08817L13.6919 7.26098C13.673 7.39986 13.7138 7.47644 13.7499 7.51731C13.7917 7.56472 13.8602 7.60103 13.95 7.60103H17.95C18.9029 7.60103 19.7427 7.98747 20.2538 8.68113C20.7666 9.37714 20.8795 10.2896 20.5597 11.1938L18.1704 18.4613C17.9645 19.2515 17.447 19.9051 16.8304 20.3563C16.207 20.8125 15.4298 21.101 14.65 21.101H10.85C10.4776 21.101 10.0333 21.0405 9.61896 20.9222C9.23818 20.8134 8.78894 20.6295 8.45859 20.3191L5.39087 17.9441L6.30913 16.758L9.44672 19.1871L9.48033 19.2207C9.54698 19.2873 9.727 19.393 10.031 19.4799C10.3167 19.5615 10.6224 19.601 10.85 19.601H14.65C15.0702 19.601 15.543 19.4396 15.9446 19.1458C16.3457 18.8523 16.6231 18.4662 16.7224 18.0691L16.729 18.0427L19.1405 10.7077L19.1437 10.6988C19.3197 10.206 19.2316 9.82248 19.0462 9.57093C18.8573 9.31459 18.4971 9.10103 17.95 9.10103H13.95C12.9067 9.10103 12.0412 8.20963 12.2075 7.04496L12.2089 7.03524L12.7127 3.81165L12.7179 3.78833C12.8285 3.29031 12.4749 2.64989 11.9128 2.46254L11.8997 2.45815L11.8867 2.45328C11.6837 2.37716 11.4169 2.37891 11.1438 2.4728C10.8656 2.56842 10.6649 2.73073 10.574 2.86706L10.5725 2.86941L6.47247 8.96941L5.22754 8.13265L9.32596 2.03501C9.32626 2.03456 9.32655 2.03412 9.32685 2.03368C9.63603 1.57069 10.1349 1.23347 10.6562 1.05427C11.1792 0.874482 11.807 0.825614 12.4002 1.0439Z" fill="#292D32"/>
<path id="b" fill-rule="evenodd" clip-rule="evenodd" d="M1.73371 6.62713C1.63499 6.71826 1.5 6.93554 1.5 7.55103V17.351C1.5 17.9665 1.63499 18.1838 1.73371 18.2749C1.84716 18.3797 2.10748 18.501 2.75 18.501H3.75C4.39252 18.501 4.65284 18.3797 4.76629 18.2749C4.86501 18.1838 5 17.9665 5 17.351V7.55103C5 6.93554 4.86501 6.71826 4.76629 6.62713C4.65284 6.52241 4.39252 6.40103 3.75 6.40103H2.75C2.10748 6.40103 1.84716 6.52241 1.73371 6.62713ZM0.71629 5.52493C1.25284 5.02966 1.99252 4.90103 2.75 4.90103H3.75C4.50748 4.90103 5.24716 5.02966 5.78371 5.52493C6.33499 6.03381 6.5 6.76652 6.5 7.55103V17.351C6.5 18.1355 6.33499 18.8683 5.78371 19.3771C5.24716 19.8724 4.50748 20.001 3.75 20.001H2.75C1.99252 20.001 1.25284 19.8724 0.71629 19.3771C0.165005 18.8683 0 18.1355 0 17.351V7.55103C0 6.76652 0.165005 6.03381 0.71629 5.52493Z" fill="#292D32"/>
</g>
</svg>
